#!OML:ASF F:\VICON\USERDATA\INSTALL\rory3\rory3.ASF
:FULLY-SPECIFIED
:DEGREES
5115
root -2.76103 14.2996 -17.5965 -541.578 2.75962 531.572
lowerback 15.3125 -4.17256 -12.7716
upperback -0.316442 -7.68897 -0.250582
thorax -7.28427 -3.1837 8.42492
lowerneck -11.2604 -9.6952 -5.99455
upperneck 17.6901 -13.3287 7.65852
head 8.26939 -5.87002 2.0558
rclavicle -3.24516e-014 -1.09332e-014
rhumerus 51.5833 21.3661 -42.9236
rradius 60.9614
rwrist -64.0309
rhand -3.16182 9.69588
rfingers 7.12502
rthumb 22.5587 -19.0062
lclavicle -3.24516e-014 -1.09332e-014
lhumerus 36.467 -56.4109 68.6661
lradius 85.2694
lwrist 78.7641
lhand -3.14102 31.93
lfingers 7.12502
lthumb 22.5786 60.6296
rfemur -51.3539 -0.583797 6.90575
rtibia 69.2804
rfoot -13.7417 11.6442
rtoes -18.8824
lfemur 10.9742 16.9025 -17.7113
ltibia 37.9999
lfoot -36.5989 11.4351
ltoes -20.8155
5116
root -2.76498 14.2913 -17.5663 -541.536 2.77841 531.711
lowerback 15.6225 -4.15978 -12.8118
upperback -0.487961 -7.7418 -0.104463
thorax -7.61239 -3.17397 8.66603
lowerneck -11.0805 -9.65395 -6.02268
upperneck 17.6265 -13.237 7.4992
head 8.19915 -5.85252 2.02905
rclavicle -7.30037e-014 8.94531e-015
rhumerus 51.2705 21.5119 -42.8033
rradius 61.286
rwrist -64.2376
rhand -3.03962 9.49563
rfingers 7.12502
rthumb 22.6759 -19.1921
lclavicle -7.30037e-014 8.94531e-015
lhumerus 36.4964 -56.5603 68.5343
lradius 85.2074
lwrist 79.1546
lhand -3.22646 31.4523
lfingers 7.12502
lthumb 22.4966 60.1619
rfemur -51.5459 -0.522743 7.05218
rtibia 69.2863
rfoot -13.6556 11.5421
rtoes -19.5651
lfemur 10.7397 17.0996 -17.4911
ltibia 38.1262
lfoot -36.5446 11.4297
ltoes -21.0586
5117
root -2.78836 14.2894 -17.5709 -541.751 2.71258 531.065
lowerback 15.687 -4.18015 -13.25
upperback -0.527584 -7.86548 -0.301444
thorax -7.63757 -3.20785 8.71894
lowerneck -10.8674 -9.58906 -6.03924
upperneck 17.5919 -13.1246 7.39121
head 8.13441 -5.81743 2.02124
rclavicle -8.3738e-015 -3.12092e-014
rhumerus 51.0482 21.6297 -43.0115
rradius 61.4808
rwrist -64.3532
rhand -3.02616 9.18932
rfingers 7.12502
rthumb 22.6889 -19.4968
lclavicle -8.3738e-015 -3.12092e-014
lhumerus 36.8821 -56.6714 67.9574
lradius 85.1368
lwrist 79.535
lhand -3.32135 30.891
lfingers 7.12502
lthumb 22.4055 59.6116
rfemur -51.3644 -0.96082 6.197
rtibia 69.368
rfoot -13.6954 12.0524
rtoes -19.2216
lfemur 11.0143 17.1439 -18.2564
ltibia 38.054
lfoot -36.5541 11.8051
ltoes -21.7996
5118
root -2.80836 14.2974 -17.5696 -541.889 2.66801 530.633
lowerback 15.6175 -4.22998 -13.5477
upperback -0.458886 -7.96493 -0.426302
thorax -7.47788 -3.25715 8.74474
lowerneck -10.7653 -9.49576 -6.0478
upperneck 17.4781 -12.9791 7.31765
head 8.06287 -5.76502 2.02271
rclavicle -2.60159e-014 -1.03368e-014
rhumerus 51.1973 21.7038 -43.1495
rradius 61.4181
rwrist -64.3986
rhand -3.06978 9.3105
rfingers 7.12502
rthumb 22.647 -19.3808
lclavicle -2.60159e-014 -1.03368e-014
lhumerus 37.3326 -56.5862 67.3958
lradius 85.0774
lwrist 80.0159
lhand -3.11203 30.861
lfingers 7.12502
lthumb 22.6064 59.5572
rfemur -51.1842 -1.24699 5.60478
rtibia 69.3469
rfoot -13.729 12.3986
rtoes -18.9328
lfemur 11.1985 17.1796 -18.7973
ltibia 37.9866
lfoot -36.5919 11.9598
ltoes -22.1503
5119
root -2.8158 14.299 -17.5436 -541.864 2.66368 530.665
lowerback 15.48 -4.25568 -13.5914
upperback -0.269206 -7.95551 -0.400932
thorax -7.1806 -3.28332 8.76278
lowerneck -11.0038 -9.45274 -5.88374
upperneck 17.3538 -12.9265 7.21655
head 8.04166 -5.74215 1.96143
rclavicle -8.77137e-015 9.93923e-016
rhumerus 51.4581 21.4641 -43.2118
rradius 61.4052
rwrist -64.3812
rhand -3.13378 9.69315
rfingers 7.12502
rthumb 22.5856 -19.0056
lclavicle -8.77137e-015 9.93923e-016
lhumerus 38.09 -56.4586 66.7673
lradius 84.9037
lwrist 80.3384
lhand -2.61041 31.2224
lfingers 7.12502
lthumb 23.0878 59.8592
rfemur -51.2428 -1.20261 5.60757
rtibia 69.2887
rfoot -13.7419 12.3084
rtoes -19.5226
lfemur 11.0243 17.3078 -18.7535
ltibia 38.0584
lfoot -36.5186 11.9315
ltoes -22.7367
5120
root -2.82101 14.2929 -17.5108 -541.81 2.70417 530.952
lowerback 15.4466 -4.26351 -13.3911
upperback -0.133163 -7.90294 -0.275354
thorax -7.02944 -3.28506 8.76874
lowerneck -11.4259 -9.4451 -5.82399
upperneck 17.4699 -12.9131 7.13622
head 8.14474 -5.72814 1.90685
rclavicle 2.44754e-014 1.45113e-014
rhumerus 51.7081 21.2319 -43.205
rradius 61.4198
rwrist -64.3189
rhand -3.32578 9.90056
rfingers 7.12502
rthumb 22.4013 -18.8205
lclavicle 2.44754e-014 1.45113e-014
lhumerus 38.843 -56.4479 66.0756
lradius 84.8224
lwrist 80.546
lhand -2.30748 31.2286
lfingers 7.12502
lthumb 23.3784 59.8288
rfemur -51.3852 -1.02615 5.91747
rtibia 69.1902
rfoot -13.5181 12.1661
rtoes -19.6829
lfemur 10.6948 17.4936 -18.3823
ltibia 38.3457
lfoot -36.5351 11.7256
ltoes -22.5682
